# xmcd
#
# Track frame offsets: 
#        183
#        11308
#        27883
#        36503
#        48815
#        64098
#        76943
#        96425
#        113245
#        124645
#        136948
#
# Disc length: 2067 seconds
#
# Revision: 0
# Processed by: cddbd v1.5.2PL0 Copyright (c) Steve Scherf et al.
# Submitted via: ExactAudioCopy v0.99pb4
#
DISCID=8608110b
DTITLE=John Brack and the JB-Band - By yourr Request
DYEAR=1996
DGENRE=Country
TTITLE0=Oh, Lonesome Me
TTITLE1=Green Green Grass of Home
TTITLE2=On the Road Again
TTITLE3=Es Praliné
TTITLE4=Tulsa time
TTITLE5=Take Me home Country Roads
TTITLE6=Family Tradition
TTITLE7=Your Cheatin'Heart
TTITLE8=Wabash Cannonball
TTITLE9=Lord I Hope This Day is Good
TTITLE10=Detroit City
EXTD=
EXTT0=
EXTT1=
EXTT2=
EXTT3=
EXTT4=
EXTT5=
EXTT6=
EXTT7=
EXTT8=
EXTT9=
EXTT10=
PLAYORDER=
